<?xml version="1.0" standalone="no"?>
<!DOCTYPE svg PUBLIC "-//W3C//DTD SVG 20010904//EN"
 "http://www.w3.org/TR/2001/REC-SVG-20010904/DTD/svg10.dtd">
<svg version="1.0" xmlns="http://www.w3.org/2000/svg"
 width="700.000000pt" height="700.000000pt" viewBox="0 0 700.000000 700.000000"
 preserveAspectRatio="xMidYMid meet">
<metadata>
Created by potrace 1.11, written by Peter Selinger 2001-2013
</metadata>
<g transform="translate(0.000000,700.000000) scale(0.100000,-0.100000)"
fill="#000000" stroke="none">
<path d="M3277 6995 c-1 -2 -40 -6 -87 -9 -81 -6 -119 -11 -185 -21 -16 -3
-50 -8 -75 -11 -158 -20 -592 -139 -724 -198 -17 -8 -69 -31 -116 -51 -287
-123 -634 -342 -881 -555 -80 -68 -298 -287 -361 -360 -389 -457 -650 -981
-772 -1550 -27 -129 -34 -163 -41 -235 -3 -27 -8 -56 -10 -63 -19 -56 -29
-654 -13 -789 26 -214 66 -431 104 -563 28 -97 116 -365 124 -375 4 -5 17 -37
30 -70 35 -91 153 -325 222 -439 55 -91 183 -283 197 -296 4 -3 25 -31 49 -63
112 -150 325 -373 492 -514 274 -231 594 -427 915 -561 196 -82 233 -90 292
-66 49 20 71 40 94 86 18 35 19 78 19 1002 0 850 -2 971 -15 1003 -20 47 -41
71 -85 93 -32 16 -72 18 -450 18 -386 0 -418 -2 -452 -19 -97 -49 -128 -183
-60 -257 61 -67 53 -66 396 -68 171 -1 314 -2 317 -3 3 0 6 -325 6 -720 l0
-719 -22 8 c-119 45 -462 248 -584 345 -313 251 -541 492 -724 769 -95 145
-103 158 -180 306 -75 145 -130 273 -182 420 -34 100 -92 302 -101 359 -3 14
-11 58 -19 96 -7 39 -16 93 -20 120 -4 28 -8 61 -11 75 -19 130 -25 461 -10
655 4 61 9 112 11 115 2 3 6 28 9 55 53 408 221 866 450 1230 140 223 264 375
460 570 339 337 733 582 1186 740 160 55 386 113 510 130 25 3 56 8 70 10 14
3 48 7 75 10 28 3 70 8 95 11 25 2 105 7 178 9 73 2 143 7 155 11 64 20 117
93 117 160 0 54 -35 119 -78 146 -34 21 -49 23 -175 24 -75 0 -138 0 -140 -1z"/>
<path d="M4454 6821 c-48 -22 -80 -59 -94 -110 -8 -24 -10 -422 -8 -1237 l3
-1200 25 -37 c65 -94 196 -105 269 -22 17 19 33 52 37 72 4 21 8 509 8 1086
l0 1047 20 -5 c12 -4 102 -46 201 -95 196 -97 451 -259 563 -358 13 -11 52
-44 87 -74 77 -63 271 -259 340 -343 28 -33 52 -62 55 -65 7 -6 90 -117 113
-150 200 -292 316 -523 420 -830 39 -116 89 -298 103 -380 34 -190 40 -237 51
-380 13 -185 7 -489 -13 -620 -66 -439 -156 -730 -330 -1067 -317 -612 -810
-1092 -1436 -1397 -150 -72 -254 -112 -483 -185 -27 -9 -134 -37 -177 -47 -10
-2 -28 -6 -40 -9 -47 -12 -235 -43 -293 -49 -33 -4 -80 -9 -105 -11 -25 -3
-105 -7 -178 -10 -106 -4 -140 -9 -171 -25 -119 -60 -120 -234 0 -298 43 -23
48 -24 209 -18 91 4 177 8 190 10 14 3 52 7 86 10 101 10 332 53 454 85 350
91 692 238 987 424 710 446 1233 1120 1482 1907 56 180 108 399 126 540 3 25
8 56 10 70 4 25 11 97 21 205 7 76 7 460 0 500 -2 17 -7 64 -11 105 -3 41 -8
82 -10 90 -2 8 -7 40 -10 70 -4 30 -11 74 -16 98 -5 23 -12 59 -15 80 -11 68
-74 306 -110 412 -146 429 -376 834 -668 1175 -133 155 -365 375 -516 489 -41
31 -80 60 -85 64 -22 18 -225 152 -229 152 -3 0 -29 15 -58 34 -170 108 -606
296 -721 311 -29 3 -55 -1 -83 -14z"/>
<path d="M2719 5830 l-396 -5 -40 -27 c-22 -14 -48 -43 -58 -65 -18 -36 -18
-101 -19 -1333 -1 -1126 1 -1300 14 -1339 37 -111 181 -146 272 -67 58 49 58
53 58 559 l0 464 328 0 c180 1 345 3 367 6 214 29 462 166 594 329 89 110 155
267 176 418 7 59 7 211 -1 280 -7 68 -37 188 -63 256 -92 240 -311 435 -567
505 -90 25 -128 26 -665 19z m620 -366 c83 -31 130 -62 193 -127 150 -155 195
-485 94 -685 -66 -130 -184 -221 -353 -271 -68 -20 -95 -22 -395 -22 l-323 -1
-3 566 -2 566 361 0 c360 -1 361 -1 428 -26z"/>
<path d="M4495 3623 c-44 -9 -86 -35 -112 -70 l-28 -36 -5 -830 -5 -829 -165
232 c-91 128 -176 249 -190 269 -14 20 -37 52 -51 71 -14 19 -81 114 -149 210
-68 96 -140 198 -160 225 -21 28 -94 131 -164 230 -70 99 -134 189 -142 200
-8 11 -56 78 -107 149 -115 161 -128 171 -215 171 -81 0 -124 -25 -153 -89
-18 -39 -19 -90 -19 -1144 0 -904 2 -1108 14 -1135 31 -76 122 -120 202 -98
49 14 65 26 98 75 l26 39 0 826 0 826 21 -25 c11 -14 39 -52 61 -85 23 -33 46
-64 51 -70 4 -5 233 -327 508 -715 614 -867 587 -830 628 -854 83 -48 188 -16
231 71 l25 50 -1 1104 c0 1042 -2 1106 -18 1138 -37 70 -111 108 -181 94z"/>
</g>
</svg>
