<svg xmlns="http://www.w3.org/2000/svg" viewBox="0 0 147.2 147.2"><defs><style>.cls-1{fill:#010101;}.cls-2{fill:#87d1d6;}.cls-3{fill:#d3858e;}</style></defs><g id="Layer_2" data-name="Layer 2"><g id="Layer_1-2" data-name="Layer 1"><path class="cls-1" d="M50,85.2a3.6,3.6,0,0,1-3.6-3.6V28.24A3.6,3.6,0,0,1,50,24.64c6.34,0,16-.09,17-.12,3-.22,7.81,1.09,11.6,4.55,2.75,2.51,6,7.16,6,15.1,0,13.34-11.32,18-17.31,18.56a2,2,0,0,1-.35,0H53.61V81.6A3.6,3.6,0,0,1,50,85.2Zm3.6-29.65H66.75c1.62-.2,10.67-1.8,10.67-11.38,0-4.25-1.23-7.53-3.66-9.76a10.18,10.18,0,0,0-6.22-2.71c-.18,0-.45,0-13.93.12Z"/><path class="cls-1" d="M95.1,123.2a3.62,3.62,0,0,1-2.94-1.52L66.7,85.82V119.6a3.6,3.6,0,0,1-7.2,0V74.54A3.61,3.61,0,0,1,66,72.45L91.5,108.31V74.54a3.6,3.6,0,0,1,7.2,0V119.6A3.6,3.6,0,0,1,96.19,123,3.44,3.44,0,0,1,95.1,123.2Z"/><path class="cls-1" d="M62.21,118.11a.5.5,0,0,1-.5-.5V74.05a.5.5,0,0,1,.5-.5.5.5,0,0,1,.5.5v43.56A.5.5,0,0,1,62.21,118.11Z"/><path class="cls-2" d="M73.6,147.2a3.6,3.6,0,0,1,0-7.2A66.42,66.42,0,0,0,98.7,12.1V56.18a3.6,3.6,0,0,1-7.2,0V7a3.59,3.59,0,0,1,4.7-3.42A73.61,73.61,0,0,1,73.6,147.2Z"/><path class="cls-3" d="M50,143.13a3.58,3.58,0,0,1-1.21-.21A73.6,73.6,0,0,1,73.6,0a3.6,3.6,0,1,1,0,7.2,66.41,66.41,0,0,0-27.19,127V103.78H34.1a3.6,3.6,0,1,1,0-7.2H50a3.6,3.6,0,0,1,3.6,3.6v39.35a3.61,3.61,0,0,1-3.6,3.6Z"/></g></g></svg>